<?xml version="1.0" encoding="utf-8"?>
<!-- Generator: Adobe Illustrator 24.1.0, SVG Export Plug-In . SVG Version: 6.00 Build 0)  -->
<svg version="1.1" id="Layer_1" xmlns="http://www.w3.org/2000/svg" xmlns:xlink="http://www.w3.org/1999/xlink" x="0px" y="0px"
	 viewBox="0 0 34.4 34.4" style="enable-background:new 0 0 34.4 34.4;" xml:space="preserve">
<style type="text/css">
	.st0{fill:#FFFFFF;}
</style>
<g>
	<g>
		<path class="st0" d="M33.6,4.3L4.3,33.6c-1,1-2.6,1-3.6,0.1c-1-1-0.9-2.6,0.1-3.6L30.1,0.8c1-1,2.6-1,3.6-0.1
			C34.6,1.7,34.6,3.3,33.6,4.3z"/>
		<path class="st0" d="M30.1,33.6L0.8,4.3c-1-1-1-2.6-0.1-3.6s2.6-0.9,3.6,0.1l29.3,29.3c1,1,1,2.6,0.1,3.6
			C32.7,34.6,31.1,34.6,30.1,33.6z"/>
	</g>
</g>
</svg>
