<?xml version="1.0" encoding="utf-8"?>
<!-- Generator: Adobe Illustrator 24.1.0, SVG Export Plug-In . SVG Version: 6.00 Build 0)  -->
<svg version="1.1" id="Layer_1" xmlns="http://www.w3.org/2000/svg" xmlns:xlink="http://www.w3.org/1999/xlink" x="0px" y="0px"
	 viewBox="0 0 31 21" style="enable-background:new 0 0 31 21;" xml:space="preserve">
<style type="text/css">
	.st0{fill:url(#SVGID_1_);}
</style>
<linearGradient id="SVGID_1_" gradientUnits="userSpaceOnUse" x1="3.2" y1="-1.8" x2="27.8" y2="22.8">
	<stop  offset="0" style="stop-color:#EF1007"/>
	<stop  offset="1.898975e-02" style="stop-color:#FF0000"/>
	<stop  offset="0.5" style="stop-color:#00FF74"/>
	<stop  offset="1" style="stop-color:#004AFF"/>
</linearGradient>
<path class="st0" d="M0,19.1V1.9c0,0,0-0.2,0.1-0.6L10.2,10L0.1,19.7C0,19.4,0,19.2,0,19.1z M1.3,0.1C1.4,0,1.6,0,1.8,0h27.3
	c0.2,0,0.4,0,0.5,0.1L19.4,8.8l-1.3,1.1l-2.7,2.2l-2.7-2.2l-1.3-1.1L1.3,0.1z M1.4,20.9l10.2-9.8l3.9,3.2l3.9-3.2l10.2,9.8
	C29.4,21,29.3,21,29.1,21H1.8C1.7,21,1.5,20.9,1.4,20.9z M20.8,10l10.1-8.7C31,1.5,31,1.7,31,1.9v17.2c0,0.2,0,0.4-0.1,0.6L20.8,10z
	"/>
</svg>
