<?xml version="1.0" encoding="utf-8"?>
<!-- Generator: Adobe Illustrator 24.1.0, SVG Export Plug-In . SVG Version: 6.00 Build 0)  -->
<svg version="1.1" id="Layer_1" xmlns="http://www.w3.org/2000/svg" xmlns:xlink="http://www.w3.org/1999/xlink" x="0px" y="0px"
	 viewBox="0 0 20.4 20.4" style="enable-background:new 0 0 20.4 20.4;" xml:space="preserve">
<path d="M20.3,4.7c-0.7-2.8-3.1-4.7-6-4.7c-2.8,0-5.5,0-8.2,0C5.7,0,5.2,0,4.7,0.1C1.9,0.7,0,3.1,0,6c0,2.8,0,5.5,0,8.3
	c0,0.7,0.1,1.4,0.3,2c0.9,2.5,3.1,4.1,5.8,4.1c1.4,0,2.7,0,4.1,0c1.4,0,2.7,0,4.1,0c0.5,0,0.9,0,1.4-0.1c2.8-0.7,4.7-3.1,4.7-6
	c0-2.8,0-5.5,0-8.2C20.4,5.6,20.4,5.1,20.3,4.7z M10.2,15.8c-3.1,0-5.6-2.5-5.6-5.6c0-3,2.5-5.5,5.5-5.6c3.1,0,5.7,2.5,5.7,5.6
	S13.3,15.8,10.2,15.8z M16.3,4.9c-0.5,0-0.8-0.4-0.8-0.9c0.1-0.5,0.4-0.8,0.9-0.8s0.8,0.4,0.8,0.9S16.8,4.9,16.3,4.9z"/>
<circle cx="10.2" cy="10.2" r="3.7"/>
</svg>
