<?xml version="1.0" encoding="utf-8"?>
<!-- Generator: Adobe Illustrator 24.1.0, SVG Export Plug-In . SVG Version: 6.00 Build 0)  -->
<svg version="1.1" id="Layer_1" xmlns="http://www.w3.org/2000/svg" xmlns:xlink="http://www.w3.org/1999/xlink" x="0px" y="0px"
	 viewBox="0 0 294.7 30" style="enable-background:new 0 0 294.7 30;" xml:space="preserve">
<g>
	<g>
		<path d="M10.6,2.5H1c-0.7,0-1-0.3-1-0.9V1.4c0-0.6,0.4-0.9,1-0.9h21.4c0.7,0,1.1,0.3,1.1,0.9v0.2c0,0.6-0.4,0.9-1.1,0.9h-9.5v26.1
			c0,0.7-0.4,1-1,1h-0.4c-0.6,0-0.9-0.4-0.9-1V2.5z"/>
		<path d="M28.1,28.6V1.3c0-0.7,0.3-1,0.9-1h0.3c0.7,0,1,0.4,1,1v12.6h18.5V1.3c0-0.7,0.3-1,1-1h0.3c0.7,0,1,0.4,1,1v27.3
			c0,0.7-0.3,1-1,1h-0.3c-0.7,0-1-0.4-1-1V16H30.3v12.6c0,0.7-0.4,1-1,1H29C28.4,29.7,28.1,29.3,28.1,28.6z"/>
		<path d="M58.2,28.1V1.8c0-0.8,0.5-1.4,1.3-1.4h17.4c0.7,0,1.1,0.3,1.1,0.9v0.2c0,0.7-0.4,0.9-1.1,0.9H60.5v11.1h12.7
			c0.7,0,1.1,0.3,1.1,0.9v0.1c0,0.6-0.4,0.9-1.1,0.9H60.5v11.8h16.8c0.7,0,1.1,0.3,1.1,0.9v0.2c0,0.6-0.4,0.9-1.1,0.9H59.5
			C58.8,29.5,58.2,28.9,58.2,28.1z"/>
		<path d="M82.2,15.1C82.2,6.3,88,0,96.5,0c8.5,0,14.3,6.2,14.3,15c0,8.7-5.8,15-14.3,15C87.9,30,82.2,23.8,82.2,15.1z M108.4,15
			c0-7.5-4.9-13-12-13S84.5,7.5,84.5,15c0,7.5,4.9,13,12,13C103.6,28,108.4,22.5,108.4,15z"/>
		<path d="M122.2,24.2c0-1,1.3-1.5,1.3-1.3c1.2,2.5,4,5.2,9,5.2c4.8,0,7.7-2.3,7.7-5.9c0-4.2-4-5.3-8.4-6.3c-4.5-1.1-8.9-2.4-8.9-8
			c0-4.6,4.1-7.8,9.5-7.8c3.9,0,6.7,1.3,8.1,2.8c0.9,0.9,1.3,1.8,1.3,2.3c0,1-1.3,1.5-1.4,1.4c-1.1-2.4-3.8-4.6-8-4.6
			s-7.2,2.3-7.2,5.8c0,4,3.4,4.9,7.9,5.9c4.7,1.1,9.4,2.7,9.4,8.3c0,4.8-3.9,8-9.9,8c-4.3,0-7.3-1.5-9-3.1
			C122.6,25.8,122.2,24.8,122.2,24.2z"/>
		<path d="M155.7,2.5h-9.6c-0.7,0-1-0.3-1-0.9V1.4c0-0.6,0.4-0.9,1-0.9h21.4c0.7,0,1.1,0.3,1.1,0.9v0.2c0,0.6-0.4,0.9-1.1,0.9H158
			v26.1c0,0.7-0.4,1-1,1h-0.4c-0.6,0-0.9-0.4-0.9-1V2.5z"/>
		<path d="M166.8,29l11-27.9c0.2-0.5,0.6-0.9,1.7-0.9s1.5,0.3,1.7,0.9L192.3,29c0,0.2-0.5,0.5-1.1,0.6c-0.6,0.1-1.3-0.1-1.6-1
			l-3.6-9.1H173l-3.6,9.1c-0.4,1-1,1.2-1.6,1C167.2,29.5,166.7,29.1,166.8,29z M185.2,17.5l-5.7-14.7l-5.8,14.7H185.2z"/>
		<path d="M196.5,28.6V1.8c0-0.9,0.4-1.5,1.2-1.5h0.6c0.8,0,1.2,0.4,1.8,1.2L217.5,26V1.3c0-0.7,0.3-1,0.9-1h0.3
			c0.6,0,0.9,0.3,0.9,1v26.8c0,0.9-0.4,1.5-1.2,1.5h-0.2c-0.9,0-1.1-0.3-1.5-0.9L198.7,3.3v25.3c0,0.7-0.3,1-1,1h-0.3
			C196.7,29.7,196.5,29.3,196.5,28.6z"/>
		<path d="M226.8,28.1V1.3c0-0.7,0.3-1,0.9-1h0.3c0.7,0,1,0.3,1,1v26.1h14.2c0.7,0,1.1,0.3,1.1,0.9v0.2c0,0.6-0.4,0.9-1.1,0.9h-15.1
			C227.3,29.5,226.8,28.9,226.8,28.1z"/>
		<path d="M249.2,28.1V1.8c0-0.8,0.5-1.4,1.3-1.4h17.4c0.7,0,1.1,0.3,1.1,0.9v0.2c0,0.7-0.5,0.9-1.1,0.9h-16.4v11.1h12.7
			c0.7,0,1.1,0.3,1.1,0.9v0.1c0,0.6-0.4,0.9-1.1,0.9h-12.7v11.8h16.8c0.7,0,1.1,0.3,1.1,0.9v0.2c0,0.6-0.4,0.9-1.1,0.9h-17.8
			C249.7,29.5,249.2,28.9,249.2,28.1z"/>
		<path d="M281.9,28.6V17.1L271.3,1.3c-0.1-0.4,0.5-0.9,1.3-0.9c0.4,0,0.9,0.2,1.2,0.7L283,15l9.2-13.9c0.4-0.7,0.9-0.8,1.3-0.8
			c0.8,0,1.3,0.6,1.2,0.9l-10.6,15.8v11.6c0,0.7-0.4,1-1,1h-0.3C282.2,29.7,281.9,29.3,281.9,28.6z"/>
	</g>
</g>
</svg>
