<?xml version="1.0" encoding="utf-8"?>
<!-- Generator: Adobe Illustrator 24.1.0, SVG Export Plug-In . SVG Version: 6.00 Build 0)  -->
<svg version="1.1" id="Layer_1" xmlns="http://www.w3.org/2000/svg" xmlns:xlink="http://www.w3.org/1999/xlink" x="0px" y="0px"
	 viewBox="0 0 580.6 136.1" style="enable-background:new 0 0 580.6 136.1;" xml:space="preserve">
<g>
	<g>
		<path d="M38.3,20.8H20.6c-1.2,0-1.9-0.6-1.9-1.7v-0.3c0-1.2,0.7-1.7,1.9-1.7H60c1.2,0,2,0.6,2,1.7v0.3c0,1.2-0.7,1.7-2,1.7H42.5
			V69c0,1.2-0.7,1.9-1.8,1.9H40c-1.2,0-1.7-0.7-1.7-1.9V20.8z"/>
		<path d="M70.4,69V18.7c0-1.2,0.6-1.9,1.7-1.9h0.6c1.2,0,1.9,0.7,1.9,1.9v23.2h34V18.7c0-1.2,0.6-1.9,1.8-1.9h0.6
			c1.2,0,1.8,0.7,1.8,1.9V69c0,1.2-0.6,1.9-1.8,1.9h-0.6c-1.2,0-1.8-0.7-1.8-1.9V45.7h-34V69c0,1.2-0.7,1.9-1.9,1.9h-0.6
			C71,70.9,70.4,70.2,70.4,69z"/>
		<path d="M126,68.1V19.6c0-1.5,1-2.6,2.4-2.6h32.1c1.2,0,2.1,0.6,2.1,1.7v0.4c0,1.2-0.8,1.7-2.1,1.7h-30.2v20.5h23.4
			c1.3,0,2.1,0.6,2.1,1.7v0.2c0,1.2-0.7,1.7-2.1,1.7h-23.4v21.8h31c1.2,0,2,0.6,2,1.7v0.4c0,1.2-0.7,1.7-2,1.7h-32.8
			C127,70.6,126,69.5,126,68.1z"/>
		<path d="M170.2,43.9c0-16.1,10.8-27.8,26.4-27.8c15.7,0,26.3,11.5,26.3,27.6s-10.7,27.7-26.4,27.7C180.8,71.4,170.2,60,170.2,43.9
			z M218.5,43.9c0-13.8-9-24-22.1-24s-22,10.1-22,24c0,13.8,9,23.9,22,23.9C209.6,67.8,218.5,57.7,218.5,43.9z"/>
		<path d="M244,60.8c0-1.8,2.3-2.7,2.5-2.5c2.2,4.6,7.4,9.5,16.7,9.5c8.8,0,14.2-4.2,14.2-10.9c0-7.7-7.3-9.7-15.4-11.6
			c-8.3-2-16.5-4.5-16.5-14.7c0-8.4,7.5-14.4,17.5-14.4c7.2,0,12.3,2.5,15,5.1c1.6,1.6,2.3,3.2,2.3,4.3c0,1.8-2.3,2.8-2.6,2.7
			c-2-4.4-7-8.4-14.7-8.4c-7.8,0-13.3,4.2-13.3,10.7c0,7.4,6.2,8.9,14.5,10.9c8.6,2,17.4,4.9,17.4,15.2c0,8.9-7.2,14.7-18.2,14.7
			c-7.9,0-13.5-2.7-16.6-5.8C244.7,63.8,244,61.9,244,60.8z"/>
		<path d="M305.7,20.8H288c-1.2,0-1.9-0.6-1.9-1.7v-0.3c0-1.2,0.7-1.7,1.9-1.7h39.4c1.2,0,2,0.6,2,1.7v0.3c0,1.2-0.7,1.7-2,1.7
			h-17.6V69c0,1.2-0.7,1.9-1.8,1.9h-0.7c-1.2,0-1.7-0.7-1.7-1.9V20.8H305.7z"/>
		<path d="M326.1,69.6l20.3-51.4c0.4-1,1.2-1.6,3.1-1.6s2.7,0.6,3.1,1.6L373,69.6c0.1,0.3-0.9,1-2,1.2s-2.3-0.2-3-1.9l-6.7-16.7
			h-23.9l-6.6,16.7c-0.7,1.8-1.9,2.2-3,1.9C326.8,70.6,326,69.9,326.1,69.6z M360,48.4l-10.5-27l-10.7,27H360z"/>
		<path d="M380.8,69V19.6c0-1.6,0.7-2.8,2.2-2.8h1.1c1.5,0,2.2,0.8,3.2,2.2l32.1,45.1V18.7c0-1.3,0.5-1.9,1.7-1.9h0.6
			c1.2,0,1.7,0.6,1.7,1.9v49.5c0,1.6-0.8,2.7-2.2,2.7H421c-1.6,0-2-0.5-2.8-1.7l-33.4-46.8V69c0,1.2-0.5,1.9-1.8,1.9h-0.6
			C381.2,70.9,380.8,70.2,380.8,69z"/>
		<path d="M436.6,68.1V18.7c0-1.3,0.6-1.9,1.7-1.9h0.6c1.2,0,1.9,0.6,1.9,1.9v48h26.1c1.3,0,2,0.6,2,1.7v0.4c0,1.1-0.7,1.7-2,1.7
			H439C437.6,70.6,436.6,69.5,436.6,68.1z"/>
		<path d="M477.9,68.1V19.6c0-1.5,1-2.6,2.4-2.6h32.1c1.2,0,2.1,0.6,2.1,1.7v0.4c0,1.2-0.8,1.7-2.1,1.7h-30.2v20.5h23.4
			c1.3,0,2.1,0.6,2.1,1.7v0.2c0,1.2-0.7,1.7-2.1,1.7h-23.4v21.8h31c1.2,0,2,0.6,2,1.7v0.4c0,1.2-0.7,1.7-2,1.7h-32.8
			C478.9,70.6,477.9,69.5,477.9,68.1z"/>
		<path d="M538.1,69V47.7l-19.4-29.2c-0.2-0.7,1-1.7,2.4-1.7c0.7,0,1.6,0.3,2.2,1.3l16.9,25.7l16.9-25.6c0.8-1.2,1.7-1.4,2.4-1.4
			c1.4,0,2.3,1.2,2.2,1.7l-19.5,29.2V69c0,1.2-0.7,1.9-1.8,1.9H540C538.7,70.9,538.1,70.2,538.1,69z"/>
	</g>
	<g>
		<path d="M179.2,91.1c0-0.6,0.4-1.1,1-1.1h5.5c8,0,12.6,4.3,12.6,11.5s-4.7,11.6-12.7,11.6h-5.3c-0.6,0-1-0.5-1-1.1V91.1H179.2z
			 M196.4,101.5c0-6.2-3.9-9.9-10.7-9.9H181v19.9h4.6C192.5,111.4,196.4,107.7,196.4,101.5z"/>
		<path d="M203.1,90.7c0-0.5,0.2-0.8,0.7-0.8h0.2c0.5,0,0.8,0.3,0.8,0.8v21.7c0,0.5-0.3,0.8-0.8,0.8h-0.2c-0.5,0-0.7-0.3-0.7-0.8
			V90.7z"/>
		<path d="M210.9,112.3V91.1c0-0.6,0.4-1.1,1-1.1h6.2c5.4,0,8.3,2.3,8.3,6.6c0,4.2-2.9,6.6-7.8,6.6h-0.8l8.5,9.1
			c0.1,0.1-0.3,0.9-1.1,0.9c-0.3,0-0.7-0.2-1.1-0.6l-8.6-9.3h-2.9v9.2c0,0.5-0.2,0.8-0.8,0.8h-0.2
			C211.1,113.1,210.9,112.9,210.9,112.3z M218.3,101.6c4.2,0,6.2-2,6.2-5c0-3.2-2.1-5-6.4-5h-5.6v10H218.3z"/>
		<path d="M230.9,111.9V91.1c0-0.6,0.4-1.1,1-1.1h13.8c0.5,0,0.9,0.2,0.9,0.7v0.2c0,0.5-0.4,0.7-0.9,0.7h-13v8.8h10.1
			c0.6,0,0.9,0.2,0.9,0.7v0.1c0,0.5-0.3,0.7-0.9,0.7h-10.1v9.4H246c0.5,0,0.9,0.2,0.9,0.7v0.2c0,0.5-0.3,0.7-0.9,0.7h-14.1
			C231.3,113,230.9,112.6,230.9,111.9z"/>
		<path d="M261.3,89.6c3.6,0,6,1.4,7.4,2.7c0.8,0.8,1.2,1.7,1.2,2.2c0,0.9-1,1.2-1.1,1.1c-1.2-2.6-4.1-4.4-7.6-4.4
			c-5.6,0-9.5,4.3-9.5,10.3s3.9,10.3,9.6,10.3c4.2,0,6.9-2.4,7.7-5c0.1-0.1,1.2,0.1,1.2,1.1c0,0.5-0.5,1.7-1.6,2.7
			c-1.4,1.4-4,2.7-7.5,2.7c-6.8,0-11.3-4.9-11.3-11.8C249.9,94.6,254.5,89.6,261.3,89.6z"/>
		<path d="M280.8,91.6h-7.6c-0.5,0-0.8-0.2-0.8-0.7v-0.1c0-0.5,0.3-0.7,0.8-0.7h17c0.5,0,0.9,0.2,0.9,0.7v0.1c0,0.5-0.3,0.7-0.9,0.7
			h-7.6v20.7c0,0.5-0.3,0.8-0.8,0.8h-0.3c-0.5,0-0.7-0.3-0.7-0.8V91.6z"/>
		<path d="M292.1,101.5c0-6.9,4.6-12,11.4-12s11.3,5,11.3,11.9s-4.6,11.9-11.4,11.9C296.7,113.4,292.1,108.5,292.1,101.5z
			 M313,101.5c0-5.9-3.9-10.3-9.5-10.3s-9.5,4.4-9.5,10.3c0,6,3.9,10.3,9.5,10.3S313,107.5,313,101.5z"/>
		<path d="M319.4,112.3V91.1c0-0.6,0.4-1.1,1-1.1h6.2c5.4,0,8.3,2.3,8.3,6.6c0,4.2-2.9,6.6-7.8,6.6h-0.8l8.5,9.1
			c0.1,0.1-0.3,0.9-1.1,0.9c-0.3,0-0.7-0.2-1.1-0.6l-8.6-9.3h-2.9v9.2c0,0.5-0.2,0.8-0.8,0.8h-0.2
			C319.6,113.1,319.4,112.9,319.4,112.3z M326.8,101.6c4.2,0,6.2-2,6.2-5c0-3.2-2.1-5-6.3-5h-5.6v10H326.8z"/>
		<path d="M343.3,118.8c0-0.2,0.1-0.6,0.2-0.9l8.5-28c0,0,0.2-0.1,0.4-0.1c0.6,0,1.1,0.1,1.1,1c0,0.2-0.1,0.6-0.2,1l-8.5,28
			c0,0-0.2,0.1-0.4,0.1C343.8,119.9,343.2,119.7,343.3,118.8z"/>
		<path d="M363.2,91.1c0-0.6,0.4-1.1,1-1.1h5.5c8,0,12.6,4.3,12.6,11.5s-4.7,11.6-12.7,11.6h-5.3c-0.6,0-1-0.5-1-1.1V91.1H363.2z
			 M380.4,101.5c0-6.2-3.9-9.9-10.7-9.9H365v19.9h4.6C376.5,111.4,380.4,107.7,380.4,101.5z"/>
		<path d="M386.8,112.3V91.1c0-0.6,0.4-1.1,1-1.1h5.9c5.5,0,8.5,2.5,8.5,6.9c0,4.5-3,7.1-8.7,7.1h-5v8.4c0,0.5-0.3,0.8-0.8,0.8h-0.2
			C387.1,113.1,386.8,112.9,386.8,112.3z M400.4,96.9c0-3.5-2.2-5.4-6.6-5.4h-5.2v10.7h5.1C398.1,102.3,400.4,100.4,400.4,96.9z"/>
	</g>
</g>
</svg>
