<?xml version="1.0" encoding="utf-8"?>
<!-- Generator: Adobe Illustrator 24.1.0, SVG Export Plug-In . SVG Version: 6.00 Build 0)  -->
<svg version="1.1" id="Layer_1" xmlns="http://www.w3.org/2000/svg" xmlns:xlink="http://www.w3.org/1999/xlink" x="0px" y="0px"
	 viewBox="0 0 581.7 59.2" style="enable-background:new 0 0 581.7 59.2;" xml:space="preserve">
<style type="text/css">
	.st0{fill:#FFFFFF;}
</style>
<g>
	<path class="st0" d="M20.9,5H2C0.7,5,0,4.3,0,3.1V2.8c0-1.2,0.7-1.9,2-1.9h42.2c1.3,0,2.1,0.6,2.1,1.9v0.4c0,1.2-0.8,1.9-2.1,1.9
		H25.5v51.6c0,1.3-0.7,2-2,2h-0.7c-1.2,0-1.9-0.7-1.9-2V5z"/>
	<path class="st0" d="M55.4,56.5V2.7c0-1.3,0.6-2,1.9-2h0.6c1.3,0,2,0.7,2,2v24.8h36.5V2.7c0-1.3,0.6-2,2-2h0.6c1.3,0,2,0.7,2,2
		v53.9c0,1.3-0.6,2-2,2h-0.6c-1.3,0-2-0.7-2-2V31.6H59.9v24.9c0,1.3-0.7,2-2,2h-0.6C56,58.6,55.4,57.9,55.4,56.5z"/>
	<path class="st0" d="M114.9,55.5V3.6c0-1.6,1.1-2.8,2.6-2.8h34.3c1.3,0,2.2,0.6,2.2,1.8v0.4c0,1.3-0.9,1.9-2.2,1.9h-32.4v21.9h25
		c1.4,0,2.2,0.6,2.2,1.8v0.3c0,1.2-0.8,1.9-2.2,1.9h-25v23.3h33.2c1.3,0,2.1,0.6,2.1,1.9v0.4c0,1.2-0.8,1.9-2.1,1.9h-35.1
		C116,58.3,114.9,57.1,114.9,55.5z"/>
	<path class="st0" d="M162.2,29.7c0-17.2,11.5-29.7,28.3-29.7c16.9,0,28.1,12.3,28.1,29.5c0,17.2-11.4,29.6-28.3,29.6
		C173.6,59.2,162.2,46.9,162.2,29.7z M214,29.6c0-14.7-9.7-25.7-23.7-25.7c-14,0-23.5,10.8-23.5,25.7c0,14.8,9.7,25.6,23.6,25.6
		C204.4,55.3,214,44.5,214,29.6z"/>
	<path class="st0" d="M241.3,47.7c0-2,2.5-2.9,2.7-2.7c2.3,5,7.9,10.2,17.8,10.2c9.4,0,15.2-4.5,15.2-11.7c0-8.3-7.8-10.4-16.5-12.4
		c-8.9-2.1-17.7-4.8-17.7-15.7c0-9.1,8.1-15.4,18.7-15.4c7.7,0,13.1,2.7,16.1,5.5c1.7,1.7,2.5,3.5,2.5,4.6c0,2-2.5,3-2.8,2.8
		c-2.1-4.7-7.5-9.1-15.8-9.1c-8.3,0-14.3,4.5-14.3,11.4c0,7.9,6.7,9.6,15.5,11.7c9.2,2.1,18.6,5.2,18.6,16.3
		c0,9.5-7.7,15.8-19.5,15.8c-8.4,0-14.5-2.9-17.7-6.2C242.1,51,241.3,49,241.3,47.7z"/>
	<path class="st0" d="M307.4,5h-18.9c-1.3,0-2-0.6-2-1.9V2.8c0-1.2,0.7-1.9,2-1.9h42.2c1.3,0,2.1,0.6,2.1,1.9v0.4
		c0,1.2-0.8,1.9-2.1,1.9h-18.8v51.6c0,1.3-0.7,2-2,2h-0.7c-1.2,0-1.9-0.7-1.9-2V5z"/>
	<path class="st0" d="M329.2,57.2l21.7-55.1c0.4-1.1,1.2-1.7,3.4-1.7c2.1,0,2.9,0.6,3.4,1.7l21.8,55.1c0.1,0.4-1,1.1-2.1,1.2
		c-1.2,0.2-2.5-0.2-3.2-2L367,38.5h-25.6l-7.1,17.9c-0.7,2-2,2.3-3.2,2C330,58.3,329.1,57.5,329.2,57.2z M365.6,34.5L354.3,5.6
		l-11.4,28.9H365.6z"/>
	<path class="st0" d="M387.9,56.5V3.6c0-1.7,0.8-3,2.4-3h1.2c1.6,0,2.4,0.9,3.5,2.4l34.4,48.3V2.7c0-1.4,0.5-2,1.9-2h0.6
		c1.2,0,1.8,0.6,1.8,2v53c0,1.7-0.9,2.9-2.3,2.9h-0.4c-1.7,0-2.1-0.5-3-1.9L392.1,6.6v50c0,1.3-0.5,2-2,2h-0.6
		C388.3,58.6,387.9,57.9,387.9,56.5z"/>
	<path class="st0" d="M447.6,55.5V2.7c0-1.4,0.6-2,1.9-2h0.6c1.3,0,2,0.6,2,2v51.5H480c1.4,0,2.1,0.6,2.1,1.9v0.4
		c0,1.2-0.7,1.9-2.1,1.9h-29.9C448.6,58.3,447.6,57.1,447.6,55.5z"/>
	<path class="st0" d="M491.8,55.5V3.6c0-1.6,1.1-2.8,2.6-2.8h34.3c1.3,0,2.2,0.6,2.2,1.8v0.4c0,1.3-0.9,1.9-2.2,1.9h-32.4v21.9h25
		c1.4,0,2.2,0.6,2.2,1.8v0.3c0,1.2-0.8,1.9-2.2,1.9h-25v23.3h33.2c1.3,0,2.1,0.6,2.1,1.9v0.4c0,1.2-0.8,1.9-2.1,1.9h-35.1
		C492.9,58.3,491.8,57.1,491.8,55.5z"/>
	<path class="st0" d="M556.4,56.5V33.7L535.6,2.5c-0.2-0.7,1.1-1.8,2.6-1.8c0.8,0,1.7,0.4,2.4,1.4l18.1,27.5l18.1-27.4
		c0.9-1.3,1.8-1.5,2.6-1.5c1.5,0,2.5,1.2,2.4,1.8l-20.9,31.2v22.8c0,1.3-0.7,2-2,2h-0.6C557,58.6,556.4,57.9,556.4,56.5z"/>
</g>
</svg>
