<?xml version="1.0" encoding="utf-8"?>
<!-- Generator: Adobe Illustrator 20.1.0, SVG Export Plug-In . SVG Version: 6.00 Build 0)  -->
<!DOCTYPE svg PUBLIC "-//W3C//DTD SVG 1.1//EN" "http://www.w3.org/Graphics/SVG/1.1/DTD/svg11.dtd">
<svg version="1.1" id="Layer_1" xmlns="http://www.w3.org/2000/svg" xmlns:xlink="http://www.w3.org/1999/xlink" x="0px" y="0px"
	 viewBox="0 0 300 95" style="enable-background:new 0 0 300 95;" xml:space="preserve">
<style type="text/css">
	.st0{clip-path:url(#SVGID_2_);fill:none;stroke:#000000;}
</style>
<g>
	<defs>
		<rect id="SVGID_1_" width="300" height="95"/>
	</defs>
	<clipPath id="SVGID_2_">
		<use xlink:href="#SVGID_1_"  style="overflow:visible;"/>
	</clipPath>
	<path id="path5273" class="st0" d="M-30.3-80.6v255.4 M-21.7-80.6v255.4 M-13.1-80.6v255.4 M-4.5-80.6v255.4 M4.1-80.6v255.4
		 M12.6-80.6v255.4 M21.2-80.6v255.4 M29.8-80.6v255.4 M38.4-80.6v255.4 M47-80.6v255.4 M55.5-80.6v255.4 M64.1-80.6v255.4
		 M72.7-80.6v255.4 M81.3-80.6v255.4 M89.9-80.6v255.4 M98.5-80.6v255.4 M107-80.6v255.4 M115.6-80.6v255.4 M124.2-80.6v255.4
		 M132.8-80.6v255.4 M141.4-80.6v255.4 M150-80.6v255.4 M158.5-80.6v255.4 M167.1-80.6v255.4 M175.7-80.6v255.4 M184.3-80.6v255.4
		 M192.9-80.6v255.4 M201.5-80.6v255.4 M210-80.6v255.4 M218.6-80.6v255.4 M227.2-80.6v255.4 M235.8-80.6v255.4 M244.4-80.6v255.4
		 M252.9-80.6v255.4 M261.5-80.6v255.4 M270.1-80.6v255.4 M278.7-80.6v255.4 M287.3-80.6v255.4 M295.9-80.6v255.4 M304.4-80.6v255.4
		 M313-80.6v255.4 M321.6-80.6v255.4 M330.2-80.6v255.4 M-30.3-80.6H331 M-30.3-72H331 M-30.3-63.5H331 M-30.3-54.9H331 M-30.3-46.3
		H331 M-30.3-37.7H331 M-30.3-29.1H331 M-30.3-20.6H331 M-30.3-12H331 M-30.3-3.4H331 M-30.3,5.2H331 M-30.3,13.8H331 M-30.3,22.4
		H331 M-30.3,30.9H331 M-30.3,39.5H331 M-30.3,48.1H331 M-30.3,56.7H331 M-30.3,65.3H331 M-30.3,73.9H331 M-30.3,82.4H331 M-30.3,91
		H331 M-30.3,99.6H331 M-30.3,108.2H331 M-30.3,116.8H331 M-30.3,125.4H331 M-30.3,133.9H331 M-30.3,142.5H331 M-30.3,151.1H331
		 M-30.3,159.7H331 M-30.3,168.3H331"/>
</g>
</svg>
