<?xml version="1.0" encoding="utf-8"?>
<!-- Generator: Adobe Illustrator 24.1.0, SVG Export Plug-In . SVG Version: 6.00 Build 0)  -->
<svg version="1.1" id="Layer_1" xmlns="http://www.w3.org/2000/svg" xmlns:xlink="http://www.w3.org/1999/xlink" x="0px" y="0px"
	 viewBox="0 0 90 50" style="enable-background:new 0 0 90 50;" xml:space="preserve">
<style type="text/css">
	.st0{clip-path:url(#SVGID_3_);fill:url(#SVGID_4_);}
	.st1{clip-path:url(#SVGID_7_);fill:url(#SVGID_8_);}
	.st2{clip-path:url(#SVGID_11_);fill:url(#SVGID_12_);}
</style>
<g>
	<g>
		<defs>
			<path id="SVGID_1_" d="M65,10H5c-2.7,0-5-2.2-5-5v0c0-2.7,2.2-5,5-5l60,0c2.7,0,5,2.2,5,5v0C70,7.8,67.8,10,65,10z"/>
		</defs>
		<linearGradient id="SVGID_2_" gradientUnits="userSpaceOnUse" x1="16.4687" y1="-13.5313" x2="53.5312" y2="23.5313">
			<stop  offset="0.2" style="stop-color:#FF0000"/>
			<stop  offset="0.5" style="stop-color:#00FF74"/>
			<stop  offset="0.8" style="stop-color:#004AFF"/>
		</linearGradient>
		<use xlink:href="#SVGID_1_"  style="overflow:visible;fill:url(#SVGID_2_);"/>
		<clipPath id="SVGID_3_">
			<use xlink:href="#SVGID_1_"  style="overflow:visible;"/>
		</clipPath>
		<linearGradient id="SVGID_4_" gradientUnits="userSpaceOnUse" x1="6.9818" y1="-11.6584" x2="82.112" y2="63.4718">
			<stop  offset="0.2" style="stop-color:#FF0000"/>
			<stop  offset="0.5" style="stop-color:#00FF74"/>
			<stop  offset="0.8" style="stop-color:#004AFF"/>
		</linearGradient>
		<rect x="-2.8" y="-1.9" class="st0" width="94.7" height="55.6"/>
	</g>
	<g>
		<defs>
			<path id="SVGID_5_" d="M85,50H25c-2.7,0-5-2.2-5-5v0c0-2.8,2.2-5,5-5h60c2.7,0,5,2.2,5,5v0C90,47.8,87.8,50,85,50z"/>
		</defs>
		<linearGradient id="SVGID_6_" gradientUnits="userSpaceOnUse" x1="36.4688" y1="26.4687" x2="73.5312" y2="63.5312">
			<stop  offset="0.2" style="stop-color:#FF0000"/>
			<stop  offset="0.5" style="stop-color:#00FF74"/>
			<stop  offset="0.8" style="stop-color:#004AFF"/>
		</linearGradient>
		<use xlink:href="#SVGID_5_"  style="overflow:visible;fill:url(#SVGID_6_);"/>
		<clipPath id="SVGID_7_">
			<use xlink:href="#SVGID_5_"  style="overflow:visible;"/>
		</clipPath>
		<linearGradient id="SVGID_8_" gradientUnits="userSpaceOnUse" x1="6.9818" y1="-11.6584" x2="82.112" y2="63.4718">
			<stop  offset="0.2" style="stop-color:#FF0000"/>
			<stop  offset="0.5" style="stop-color:#00FF74"/>
			<stop  offset="0.8" style="stop-color:#004AFF"/>
		</linearGradient>
		<rect x="-2.8" y="-1.9" class="st1" width="94.7" height="55.6"/>
	</g>
	<g>
		<defs>
			<path id="SVGID_9_" d="M75,30H15c-2.7,0-5-2.2-5-5v0c0-2.7,2.2-5,5-5h60c2.7,0,5,2.2,5,5v0C80,27.8,77.8,30,75,30z"/>
		</defs>
		<linearGradient id="SVGID_10_" gradientUnits="userSpaceOnUse" x1="26.4687" y1="6.4687" x2="63.5312" y2="43.5312">
			<stop  offset="0.2" style="stop-color:#FF0000"/>
			<stop  offset="0.5" style="stop-color:#00FF74"/>
			<stop  offset="0.8" style="stop-color:#004AFF"/>
		</linearGradient>
		<use xlink:href="#SVGID_9_"  style="overflow:visible;fill:url(#SVGID_10_);"/>
		<clipPath id="SVGID_11_">
			<use xlink:href="#SVGID_9_"  style="overflow:visible;"/>
		</clipPath>
		<linearGradient id="SVGID_12_" gradientUnits="userSpaceOnUse" x1="6.9818" y1="-11.6584" x2="82.112" y2="63.4718">
			<stop  offset="0.2" style="stop-color:#FF0000"/>
			<stop  offset="0.5" style="stop-color:#00FF74"/>
			<stop  offset="0.8" style="stop-color:#004AFF"/>
		</linearGradient>
		<rect x="-2.8" y="-1.9" class="st2" width="94.7" height="55.6"/>
	</g>
</g>
</svg>
