<?xml version="1.0" encoding="utf-8"?>
<!-- Generator: Adobe Illustrator 24.1.0, SVG Export Plug-In . SVG Version: 6.00 Build 0)  -->
<svg version="1.1" id="Layer_1" xmlns="http://www.w3.org/2000/svg" xmlns:xlink="http://www.w3.org/1999/xlink" x="0px" y="0px"
	 viewBox="0 0 38 22" style="enable-background:new 0 0 38 22;" xml:space="preserve">
<style type="text/css">
	.st0{fill:#FF0000;}
	.st1{fill:#00FF00;}
	.st2{fill:#0000FF;}
</style>
<g>
	<g>
		<path class="st0" d="M37,2H1C0.4,2,0,1.6,0,1l0,0c0-0.5,0.4-1,1-1h36c0.5,0,1,0.4,1,1l0,0C38,1.6,37.5,2,37,2z"/>
		<path class="st1" d="M37,12H1c-0.5,0-1-0.4-1-1l0,0c0-0.5,0.4-1,1-1h36c0.5,0,1,0.4,1,1l0,0C38,11.6,37.5,12,37,12z"/>
		<path class="st2" d="M37,22H1c-0.5,0-1-0.4-1-1l0,0c0-0.5,0.4-1,1-1h36c0.5,0,1,0.4,1,1l0,0C38,21.6,37.5,22,37,22z"/>
	</g>
</g>
</svg>
