<?xml version="1.0" encoding="utf-8"?>
<!-- Generator: Adobe Illustrator 24.1.0, SVG Export Plug-In . SVG Version: 6.00 Build 0)  -->
<svg version="1.1" id="Layer_1" xmlns="http://www.w3.org/2000/svg" xmlns:xlink="http://www.w3.org/1999/xlink" x="0px" y="0px"
	 viewBox="0 0 62 70" style="enable-background:new 0 0 62 70;" xml:space="preserve">
<style type="text/css">
	.st0{fill:url(#SVGID_1_);}
</style>
<linearGradient id="SVGID_1_" gradientUnits="userSpaceOnUse" x1="-8.0403" y1="11.0024" x2="39.9854" y2="59.0281">
	<stop  offset="0.2" style="stop-color:#FF0000"/>
	<stop  offset="0.5" style="stop-color:#00FF74"/>
	<stop  offset="0.8" style="stop-color:#004AFF"/>
</linearGradient>
<path class="st0" d="M61.3,37.5C61.3,37.5,61.3,37.5,61.3,37.5c0.2-0.3,0.3-0.6,0.4-0.8c0,0,0-0.1,0-0.1c0.1-0.3,0.2-0.6,0.2-0.9
	c0,0,0,0,0,0c0.1-1-0.1-2.1-0.6-3.1c-0.1-0.2-0.2-0.3-0.3-0.5c0,0,0,0,0,0c-0.2-0.2-0.3-0.4-0.5-0.6c-0.1-0.1-0.2-0.1-0.2-0.2
	c-0.1-0.1-0.2-0.2-0.4-0.3c-0.1-0.1-0.2-0.2-0.3-0.2L7.8,0.9C7.4,0.6,7,0.4,6.6,0.3c0,0-0.1,0-0.1,0C6.3,0.2,6,0.1,5.7,0.1
	c-0.1,0-0.1,0-0.2,0C5.3,0,5.2,0,5,0C4.9,0,4.8,0,4.8,0c-0.1,0-0.2,0-0.3,0C4.2,0.1,4,0.1,3.8,0.2c-0.1,0-0.2,0.1-0.2,0.1
	C3.3,0.3,3.1,0.4,2.9,0.5c-0.1,0-0.1,0.1-0.2,0.1C2.5,0.7,2.3,0.8,2,1C2,1,2,1,2,1.1C1.7,1.2,1.5,1.4,1.3,1.7c0,0,0,0,0,0
	C0.5,2.6,0,3.7,0,5v60c0,0.2,0,0.3,0,0.5c0,0.1,0,0.2,0,0.3c0,0.3,0.1,0.6,0.2,0.8c0,0,0,0,0,0C0.9,68.6,2.8,70,5,70
	c1.1,0,2-0.3,2.9-0.9l51.3-29.6c0,0,0,0,0,0l0.3-0.2c0,0,0.1-0.1,0.1-0.1c0.2-0.1,0.4-0.3,0.6-0.4c0.1-0.1,0.2-0.2,0.3-0.3
	c0.1-0.1,0.2-0.2,0.3-0.3c0.2-0.2,0.3-0.4,0.4-0.6C61.2,37.6,61.3,37.5,61.3,37.5z M10,13.6L47,35L10,56.4V13.6z"/>
</svg>
