<?xml version="1.0" encoding="utf-8"?>
<!-- Generator: Adobe Illustrator 24.1.0, SVG Export Plug-In . SVG Version: 6.00 Build 0)  -->
<svg version="1.1" id="Layer_1" xmlns="http://www.w3.org/2000/svg" xmlns:xlink="http://www.w3.org/1999/xlink" x="0px" y="0px"
	 viewBox="0 0 38.9 69.5" style="enable-background:new 0 0 38.9 69.5;" xml:space="preserve">
<g>
	<polygon points="38.9,22.5 0,0 0,44.9 	"/>
	<g>
		<path d="M1.4,65.7V55c0-0.3,0.2-0.6,0.5-0.6h3c2.8,0,4.3,1.3,4.3,3.5c0,2.3-1.5,3.6-4.4,3.6H2.3v4.2c0,0.2-0.1,0.4-0.4,0.4H1.8
			C1.5,66.1,1.4,66,1.4,65.7z M8.3,57.9c0-1.7-1.1-2.7-3.3-2.7H2.3v5.4h2.6C7.1,60.6,8.3,59.7,8.3,57.9z"/>
		<path d="M11.2,65.7V53.9c0,0,0.1-0.1,0.3-0.1c0.3,0,0.6,0.2,0.6,0.9v11c0,0.3-0.2,0.4-0.4,0.4h-0.1C11.3,66.1,11.2,66,11.2,65.7z"
			/>
		<path d="M20.2,61.1h0.2v-0.4c0-1.6-1-2.5-2.6-2.5c-1.5,0-2.4,0.7-2.9,1.6c0,0-0.5-0.1-0.5-0.5c0-0.2,0.2-0.5,0.5-0.8
			c0.5-0.5,1.5-1.1,3-1.1c2.1,0,3.4,1.2,3.4,3.3V66c0,0-0.1,0.1-0.3,0.1c-0.3,0-0.6-0.2-0.6-0.9v-0.9c-0.6,1.1-1.8,1.9-3.4,1.9
			c-1.8,0-3-0.9-3-2.3C14,62,15.9,61.1,20.2,61.1z M20.4,61.8h-0.2c-3.7,0.1-5.2,0.7-5.2,2.1c0,1,0.8,1.6,2.1,1.6
			c1.8,0,3.3-1.2,3.3-2.9V61.8z"/>
		<path d="M24.9,69.3l1.5-3.7c-0.3,0-0.5-0.1-0.6-0.3l-3.3-7.5c0-0.1,0.2-0.3,0.5-0.3c0.2,0,0.5,0.2,0.6,0.6l3,7l2.6-7
			c0.2-0.5,0.5-0.6,0.7-0.6c0.2,0,0.4,0.2,0.4,0.2L26,68.9c-0.2,0.5-0.4,0.6-0.6,0.6C25.2,69.5,24.9,69.3,24.9,69.3z"/>
	</g>
</g>
</svg>
