<?xml version="1.0" encoding="utf-8"?>
<!-- Generator: Adobe Illustrator 24.1.0, SVG Export Plug-In . SVG Version: 6.00 Build 0)  -->
<svg version="1.1" id="Layer_1" xmlns="http://www.w3.org/2000/svg" xmlns:xlink="http://www.w3.org/1999/xlink" x="0px" y="0px"
	 viewBox="0 0 62 70" style="enable-background:new 0 0 62 70;" xml:space="preserve">
<style type="text/css">
	.st0{clip-path:url(#SVGID_5_);fill:url(#SVGID_6_);}
	.st1{fill:url(#SVGID_7_);}
	.st2{clip-path:url(#SVGID_9_);fill:url(#SVGID_10_);}
	.st3{fill:url(#SVGID_11_);}
	.st4{clip-path:url(#SVGID_14_);fill:url(#SVGID_15_);}
</style>
<g>
	<defs>
		<path id="SVGID_1_" d="M0,65V5c0-2.7,2.2-5,5-5l0,0c2.7,0,5,2.2,5,5v60c0,2.7-2.2,5-5,5l0,0C2.2,70,0,67.8,0,65z"/>
	</defs>
	
		<linearGradient id="SVGID_4_" gradientUnits="userSpaceOnUse" x1="-192.0279" y1="81.126" x2="-182.0279" y2="81.126" gradientTransform="matrix(-1 0 0 -1 -182.0279 116.1427)">
		<stop  offset="0.3389" style="stop-color:#FF0000"/>
		<stop  offset="0.5" style="stop-color:#00FF74"/>
		<stop  offset="0.7221" style="stop-color:#004AFF"/>
	</linearGradient>
	<use xlink:href="#SVGID_1_"  style="overflow:visible;fill:url(#SVGID_4_);"/>
	<clipPath id="SVGID_5_">
		<use xlink:href="#SVGID_1_"  style="overflow:visible;"/>
	</clipPath>
	
		<linearGradient id="SVGID_6_" gradientUnits="userSpaceOnUse" x1="-45.3393" y1="293.9563" x2="29.8107" y2="218.8063" gradientTransform="matrix(-6.123234e-17 1 1 6.123234e-17 -252.2813 42.331)">
		<stop  offset="0.3389" style="stop-color:#FF0000"/>
		<stop  offset="0.5" style="stop-color:#00FF74"/>
		<stop  offset="0.7221" style="stop-color:#004AFF"/>
	</linearGradient>
	<rect x="-23.7" y="-12.8" class="st0" width="55.6" height="94.7"/>
</g>
<g>
	<g>
		
			<linearGradient id="SVGID_7_" gradientUnits="userSpaceOnUse" x1="5.9504" y1="80.7303" x2="43.0317" y2="43.649" gradientTransform="matrix(0.866 -0.5 -0.5 -0.866 40.873 116.0982)">
			<stop  offset="0.2" style="stop-color:#FF0000"/>
			<stop  offset="0.5" style="stop-color:#00FF74"/>
			<stop  offset="0.8" style="stop-color:#004AFF"/>
		</linearGradient>
		<path id="SVGID_2_" class="st1" d="M59.5,39.3l-52,30c-2.3,1.3-5.4,0.6-6.8-1.8l0,0c-1.4-2.3-0.6-5.4,1.8-6.8l52-30
			c2.3-1.3,5.4-0.6,6.8,1.8l0,0C62.7,34.9,61.9,37.9,59.5,39.3z"/>
	</g>
	<g>
		<defs>
			<path id="SVGID_8_" d="M59.5,39.3l-52,30c-2.3,1.3-5.4,0.6-6.8-1.8l0,0c-1.4-2.3-0.6-5.4,1.8-6.8l52-30c2.3-1.3,5.4-0.6,6.8,1.8
				l0,0C62.7,34.9,61.9,37.9,59.5,39.3z"/>
		</defs>
		<clipPath id="SVGID_9_">
			<use xlink:href="#SVGID_8_"  style="overflow:visible;"/>
		</clipPath>
		
			<linearGradient id="SVGID_10_" gradientUnits="userSpaceOnUse" x1="-3.5433" y1="78.874" x2="71.6067" y2="3.724" gradientTransform="matrix(0.866 -0.5 -0.5 -0.866 40.873 116.0982)">
			<stop  offset="0.2" style="stop-color:#FF0000"/>
			<stop  offset="0.5" style="stop-color:#00FF74"/>
			<stop  offset="0.8" style="stop-color:#004AFF"/>
		</linearGradient>
		<polygon class="st2" points="-5.2,62.9 76.8,15.6 104.6,63.7 22.6,111.1 		"/>
	</g>
</g>
<g>
	<g>
		
			<linearGradient id="SVGID_11_" gradientUnits="userSpaceOnUse" x1="-136.9314" y1="-12.8153" x2="-156.9057" y2="-47.4118" gradientTransform="matrix(-0.866 -0.5 -0.5 0.866 -111.3308 -27.3533)">
			<stop  offset="0.2" style="stop-color:#FF0000"/>
			<stop  offset="0.5" style="stop-color:#00FF74"/>
			<stop  offset="0.7221" style="stop-color:#004AFF"/>
		</linearGradient>
		<path id="SVGID_3_" class="st3" d="M7.5,0.7l52,30c2.3,1.4,3.2,4.4,1.8,6.8l0,0c-1.4,2.4-4.4,3.2-6.8,1.8l-52-30
			C0.2,8-0.7,4.9,0.7,2.5l0,0C2.1,0.1,5.1-0.7,7.5,0.7z"/>
	</g>
	<g>
		<defs>
			<path id="SVGID_12_" d="M7.5,0.7l52,30c2.3,1.4,3.2,4.4,1.8,6.8l0,0c-1.4,2.4-4.4,3.2-6.8,1.8l-52-30C0.2,8-0.7,4.9,0.7,2.5l0,0
				C2.1,0.1,5.1-0.7,7.5,0.7z"/>
		</defs>
		<linearGradient id="SVGID_13_" gradientUnits="userSpaceOnUse" x1="13.6629" y1="30.014" x2="48.2944" y2="10.0195">
			<stop  offset="0.2" style="stop-color:#FF0000"/>
			<stop  offset="0.5" style="stop-color:#00FF74"/>
			<stop  offset="0.7221" style="stop-color:#004AFF"/>
		</linearGradient>
		<use xlink:href="#SVGID_12_"  style="overflow:visible;fill:url(#SVGID_13_);"/>
		<clipPath id="SVGID_14_">
			<use xlink:href="#SVGID_12_"  style="overflow:visible;"/>
		</clipPath>
		
			<linearGradient id="SVGID_15_" gradientUnits="userSpaceOnUse" x1="-133.5034" y1="30.3221" x2="-181.2539" y2="-52.3842" gradientTransform="matrix(-0.866 -0.5 -0.5 0.866 -111.3308 -27.3533)">
			<stop  offset="0.2" style="stop-color:#FF0000"/>
			<stop  offset="0.5" style="stop-color:#00FF74"/>
			<stop  offset="0.7221" style="stop-color:#004AFF"/>
		</linearGradient>
		<polygon class="st4" points="57.6,89.5 -24.4,42.2 3.4,-6 85.4,41.4 		"/>
	</g>
</g>
</svg>
