<?xml version="1.0" encoding="utf-8"?>
<!-- Generator: Adobe Illustrator 24.1.0, SVG Export Plug-In . SVG Version: 6.00 Build 0)  -->
<svg version="1.1" id="Layer_1" xmlns="http://www.w3.org/2000/svg" xmlns:xlink="http://www.w3.org/1999/xlink" x="0px" y="0px"
	 viewBox="0 0 62 70" style="enable-background:new 0 0 62 70;" xml:space="preserve">
<style type="text/css">
	.st0{fill:url(#SVGID_1_);}
	.st1{clip-path:url(#SVGID_5_);fill:url(#SVGID_8_);}
	.st2{fill:url(#SVGID_9_);}
	.st3{clip-path:url(#SVGID_11_);fill:url(#SVGID_13_);}
	.st4{fill:url(#SVGID_14_);}
	.st5{fill:url(#SVGID_15_);}
	.st6{clip-path:url(#SVGID_17_);fill:url(#SVGID_18_);}
</style>
<g>
	<g>
		<g>
			
				<linearGradient id="SVGID_1_" gradientUnits="userSpaceOnUse" x1="-2030.5502" y1="998.8573" x2="-2020.5502" y2="998.8573" gradientTransform="matrix(1 0 0 -1 2082.5391 1033.8573)">
				<stop  offset="0.2765" style="stop-color:#FF0000"/>
				<stop  offset="0.5" style="stop-color:#00FF74"/>
				<stop  offset="0.6677" style="stop-color:#004AFF"/>
			</linearGradient>
			<path id="SVGID_7_" class="st0" d="M62,5v60c0,2.7-2.2,5-5,5l0,0c-2.7,0-5-2.2-5-5V5c0-2.7,2.2-5,5-5l0,0C59.8,0,62,2.2,62,5z"/>
		</g>
		<g>
			<defs>
				<path id="SVGID_2_" d="M62,5v60c0,2.7-2.2,5-5,5l0,0c-2.7,0-5-2.2-5-5V5c0-2.7,2.2-5,5-5l0,0C59.8,0,62,2.2,62,5z"/>
			</defs>
			
				<linearGradient id="SVGID_3_" gradientUnits="userSpaceOnUse" x1="0" y1="35" x2="10" y2="35" gradientTransform="matrix(-1 0 0 -1 61.9889 70)">
				<stop  offset="0.2765" style="stop-color:#FF0000"/>
				<stop  offset="0.5" style="stop-color:#00FF74"/>
				<stop  offset="0.6677" style="stop-color:#004AFF"/>
			</linearGradient>
			<use xlink:href="#SVGID_2_"  style="overflow:visible;fill:url(#SVGID_3_);"/>
			<clipPath id="SVGID_5_">
				<use xlink:href="#SVGID_2_"  style="overflow:visible;"/>
			</clipPath>
			
				<linearGradient id="SVGID_8_" gradientUnits="userSpaceOnUse" x1="-474.6004" y1="-623.2341" x2="-399.4504" y2="-548.084" gradientTransform="matrix(8.979324e-11 -1 1 8.979324e-11 643.548 -401.5754)">
				<stop  offset="0.2765" style="stop-color:#FF0000"/>
				<stop  offset="0.5" style="stop-color:#00FF74"/>
				<stop  offset="0.6677" style="stop-color:#004AFF"/>
			</linearGradient>
			<rect x="30.1" y="-11.9" class="st1" width="55.6" height="94.7"/>
		</g>
	</g>
	<g>
		<g>
			
				<linearGradient id="SVGID_9_" gradientUnits="userSpaceOnUse" x1="-362.2007" y1="1393.2911" x2="-325.1223" y2="1430.3696" gradientTransform="matrix(-0.866 0.5 -0.5 -0.866 439.2885 1414.4746)">
				<stop  offset="0.2" style="stop-color:#FF0000"/>
				<stop  offset="0.5" style="stop-color:#00FF74"/>
				<stop  offset="0.8" style="stop-color:#004AFF"/>
			</linearGradient>
			<path id="SVGID_6_" class="st2" d="M2.5,30.7l52-30c2.3-1.3,5.4-0.6,6.8,1.8l0,0c1.4,2.3,0.6,5.4-1.8,6.8l-52,30
				c-2.3,1.3-5.4,0.6-6.8-1.8l0,0C-0.7,35.1,0.1,32.1,2.5,30.7z"/>
		</g>
		<g>
			<g>
				<defs>
					<path id="SVGID_10_" d="M2.5,30.7l52-30c2.3-1.3,5.4-0.6,6.8,1.8l0,0c1.4,2.3,0.6,5.4-1.8,6.8l-52,30c-2.3,1.3-5.4,0.6-6.8-1.8
						l0,0C-0.7,35.1,0.1,32.1,2.5,30.7z"/>
				</defs>
				<clipPath id="SVGID_11_">
					<use xlink:href="#SVGID_10_"  style="overflow:visible;"/>
				</clipPath>
				
					<linearGradient id="SVGID_13_" gradientUnits="userSpaceOnUse" x1="-371.726" y1="1395.1582" x2="-296.5829" y2="1470.3014" gradientTransform="matrix(-0.866 0.5 -0.5 -0.866 439.2885 1414.4746)">
					<stop  offset="0.2" style="stop-color:#FF0000"/>
					<stop  offset="0.5" style="stop-color:#00FF74"/>
					<stop  offset="0.8" style="stop-color:#004AFF"/>
				</linearGradient>
				<polygon class="st3" points="67.2,7.1 -14.8,54.4 -42.6,6.3 39.4,-41.1 				"/>
			</g>
		</g>
	</g>
	<g>
		<g>
			
				<linearGradient id="SVGID_14_" gradientUnits="userSpaceOnUse" x1="-2097.343" y1="638.1099" x2="-2117.3198" y2="672.7104" gradientTransform="matrix(0.866 0.5 -0.5 0.866 2183.6526 536.075)">
				<stop  offset="0.2" style="stop-color:#FF0000"/>
				<stop  offset="0.5" style="stop-color:#00FF74"/>
				<stop  offset="0.7221" style="stop-color:#004AFF"/>
			</linearGradient>
			<path id="SVGID_4_" class="st4" d="M54.5,69.3l-52-30c-2.3-1.4-3.2-4.4-1.8-6.8l0,0c1.4-2.4,4.4-3.2,6.8-1.8l52,30
				c2.3,1.3,3.2,4.4,1.8,6.8l0,0C59.9,69.9,56.9,70.7,54.5,69.3z"/>
		</g>
		<g>
			<g>
				
					<linearGradient id="SVGID_15_" gradientUnits="userSpaceOnUse" x1="13.6908" y1="69.9732" x2="48.29" y2="89.949" gradientTransform="matrix(-1 0 0 1 61.9889 -29.9667)">
					<stop  offset="0.2" style="stop-color:#FF0000"/>
					<stop  offset="0.5" style="stop-color:#00FF74"/>
					<stop  offset="0.7221" style="stop-color:#004AFF"/>
				</linearGradient>
				<path id="SVGID_12_" class="st5" d="M54.5,69.3l-52-30c-2.3-1.4-3.2-4.4-1.8-6.8l0,0c1.4-2.4,4.4-3.2,6.8-1.8l52,30
					c2.3,1.3,3.2,4.4,1.8,6.8l0,0C59.9,69.9,56.9,70.7,54.5,69.3z"/>
			</g>
			<g>
				<defs>
					<path id="SVGID_16_" d="M54.5,69.3l-52-30c-2.3-1.4-3.2-4.4-1.8-6.8l0,0c1.4-2.4,4.4-3.2,6.8-1.8l52,30
						c2.3,1.3,3.2,4.4,1.8,6.8l0,0C59.9,69.9,56.9,70.7,54.5,69.3z"/>
				</defs>
				<clipPath id="SVGID_17_">
					<use xlink:href="#SVGID_16_"  style="overflow:visible;"/>
				</clipPath>
				
					<linearGradient id="SVGID_18_" gradientUnits="userSpaceOnUse" x1="-2093.8938" y1="594.9624" x2="-2141.6401" y2="677.6612" gradientTransform="matrix(0.866 0.5 -0.5 0.866 2183.6526 536.075)">
					<stop  offset="0.2" style="stop-color:#FF0000"/>
					<stop  offset="0.5" style="stop-color:#00FF74"/>
					<stop  offset="0.7221" style="stop-color:#004AFF"/>
				</linearGradient>
				<polygon class="st6" points="4.4,-19.5 86.4,27.8 58.6,76 -23.4,28.6 				"/>
			</g>
		</g>
	</g>
</g>
</svg>
