<?xml version="1.0" encoding="utf-8"?>
<!-- Generator: Adobe Illustrator 24.1.0, SVG Export Plug-In . SVG Version: 6.00 Build 0)  -->
<svg version="1.1" id="Layer_1" xmlns="http://www.w3.org/2000/svg" xmlns:xlink="http://www.w3.org/1999/xlink" x="0px" y="0px"
	 viewBox="0 0 130.5 115" style="enable-background:new 0 0 130.5 115;" xml:space="preserve">
<style type="text/css">
	.st0{clip-path:url(#SVGID_5_);fill:url(#SVGID_6_);}
	.st1{fill:url(#SVGID_7_);}
	.st2{clip-path:url(#SVGID_9_);fill:url(#SVGID_10_);}
	.st3{fill:url(#SVGID_11_);}
	.st4{clip-path:url(#SVGID_14_);fill:url(#SVGID_15_);}
</style>
<g>
	<g>
		<defs>
			<path id="SVGID_1_" d="M70.3,5v60c0,2.7-2.2,5-5,5l0,0c-2.7,0-5-2.2-5-5V5c0-2.7,2.2-5,5-5l0,0C68.1,0,70.3,2.2,70.3,5z"/>
		</defs>
		
			<linearGradient id="SVGID_4_" gradientUnits="userSpaceOnUse" x1="7.250760e-03" y1="59.1266" x2="10.0073" y2="59.1266" gradientTransform="matrix(1 0 0 1 60.2431 -24.1266)">
			<stop  offset="0.3389" style="stop-color:#FF0000"/>
			<stop  offset="0.5" style="stop-color:#00FF74"/>
			<stop  offset="0.7221" style="stop-color:#004AFF"/>
		</linearGradient>
		<use xlink:href="#SVGID_1_"  style="overflow:visible;fill:url(#SVGID_4_);"/>
		<clipPath id="SVGID_5_">
			<use xlink:href="#SVGID_1_"  style="overflow:visible;"/>
		</clipPath>
		
			<linearGradient id="SVGID_6_" gradientUnits="userSpaceOnUse" x1="10.0968" y1="135.3579" x2="85.2468" y2="60.2079" gradientTransform="matrix(6.123234e-17 -1 -1 -6.123234e-17 163.9332 83.1218)">
			<stop  offset="0.3389" style="stop-color:#FF0000"/>
			<stop  offset="0.5" style="stop-color:#00FF74"/>
			<stop  offset="0.7221" style="stop-color:#004AFF"/>
		</linearGradient>
		<rect x="38.4" y="-11.9" class="st0" width="55.6" height="94.7"/>
	</g>
	<g>
		<g>
			<g>
				
					<linearGradient id="SVGID_7_" gradientUnits="userSpaceOnUse" x1="-8.8332" y1="70.5601" x2="28.2481" y2="33.4787" gradientTransform="matrix(0.866 -0.5 -0.5 -0.866 48.5908 144.9018)">
					<stop  offset="0.2" style="stop-color:#FF0000"/>
					<stop  offset="0.5" style="stop-color:#00FF74"/>
					<stop  offset="0.8" style="stop-color:#004AFF"/>
				</linearGradient>
				<path id="SVGID_2_" class="st1" d="M59.5,84.3l-52,30c-2.3,1.3-5.4,0.6-6.8-1.8l0,0c-1.4-2.3-0.6-5.4,1.8-6.8l52-30
					c2.3-1.3,5.4-0.6,6.8,1.8l0,0C62.7,79.9,61.9,82.9,59.5,84.3z"/>
			</g>
			<g>
				<defs>
					<path id="SVGID_8_" d="M59.5,84.3l-52,30c-2.3,1.3-5.4,0.6-6.8-1.8l0,0c-1.4-2.3-0.6-5.4,1.8-6.8l52-30
						c2.3-1.3,5.4-0.6,6.8,1.8l0,0C62.7,79.9,61.9,82.9,59.5,84.3z"/>
				</defs>
				<clipPath id="SVGID_9_">
					<use xlink:href="#SVGID_8_"  style="overflow:visible;"/>
				</clipPath>
				
					<linearGradient id="SVGID_10_" gradientUnits="userSpaceOnUse" x1="-18.3269" y1="68.7037" x2="56.8231" y2="-6.4463" gradientTransform="matrix(0.866 -0.5 -0.5 -0.866 48.5908 144.9018)">
					<stop  offset="0.2" style="stop-color:#FF0000"/>
					<stop  offset="0.5" style="stop-color:#00FF74"/>
					<stop  offset="0.8" style="stop-color:#004AFF"/>
				</linearGradient>
				<polygon class="st2" points="-5.2,107.9 76.8,60.6 104.6,108.7 22.6,156.1 				"/>
			</g>
		</g>
		<g>
			<g>
				
					<linearGradient id="SVGID_11_" gradientUnits="userSpaceOnUse" x1="-20.8339" y1="161.8405" x2="-40.8082" y2="127.244" gradientTransform="matrix(0.866 0.5 0.5 -0.866 53.9603 235.5722)">
					<stop  offset="0.2" style="stop-color:#FF0000"/>
					<stop  offset="0.5" style="stop-color:#00FF74"/>
					<stop  offset="0.7221" style="stop-color:#004AFF"/>
				</linearGradient>
				<path id="SVGID_3_" class="st3" d="M123,114.3l-52-30c-2.3-1.3-3.2-4.4-1.8-6.8l0,0c1.4-2.4,4.4-3.2,6.8-1.8l52,30
					c2.3,1.3,3.2,4.4,1.8,6.8l0,0C128.4,114.9,125.4,115.7,123,114.3z"/>
			</g>
			<g>
				<defs>
					<path id="SVGID_12_" d="M123,114.3l-52-30c-2.3-1.3-3.2-4.4-1.8-6.8l0,0c1.4-2.4,4.4-3.2,6.8-1.8l52,30
						c2.3,1.3,3.2,4.4,1.8,6.8l0,0C128.4,114.9,125.4,115.7,123,114.3z"/>
				</defs>
				
					<linearGradient id="SVGID_13_" gradientUnits="userSpaceOnUse" x1="-123.8997" y1="136.7018" x2="-89.2682" y2="116.7073" gradientTransform="matrix(-1 0 0 -1 -7.0619 221.699)">
					<stop  offset="0.2" style="stop-color:#FF0000"/>
					<stop  offset="0.5" style="stop-color:#00FF74"/>
					<stop  offset="0.7221" style="stop-color:#004AFF"/>
				</linearGradient>
				<use xlink:href="#SVGID_12_"  style="overflow:visible;fill:url(#SVGID_13_);"/>
				<clipPath id="SVGID_14_">
					<use xlink:href="#SVGID_12_"  style="overflow:visible;"/>
				</clipPath>
				
					<linearGradient id="SVGID_15_" gradientUnits="userSpaceOnUse" x1="-17.4059" y1="204.9779" x2="-65.1564" y2="122.2716" gradientTransform="matrix(0.866 0.5 0.5 -0.866 53.9603 235.5722)">
					<stop  offset="0.2" style="stop-color:#FF0000"/>
					<stop  offset="0.5" style="stop-color:#00FF74"/>
					<stop  offset="0.7221" style="stop-color:#004AFF"/>
				</linearGradient>
				<polygon class="st4" points="72.9,25.5 154.9,72.8 127.1,121 45.1,73.6 				"/>
			</g>
		</g>
	</g>
</g>
</svg>
