<?xml version="1.0" encoding="utf-8"?>
<!-- Generator: Adobe Illustrator 24.1.0, SVG Export Plug-In . SVG Version: 6.00 Build 0)  -->
<svg version="1.1" id="Layer_1" xmlns="http://www.w3.org/2000/svg" xmlns:xlink="http://www.w3.org/1999/xlink" x="0px" y="0px"
	 viewBox="0 0 24.6 20" style="enable-background:new 0 0 24.6 20;" xml:space="preserve">
<style type="text/css">
	.st0{fill-rule:evenodd;clip-rule:evenodd;fill:#FFFFFF;}
</style>
<path id="XMLID_9_" class="st0" d="M7.5,15.7c-2.6-0.1-4.3-2-4.7-3.5c0.7,0.1,1.5,0.1,2.2-0.1c0,0,0,0,0.1,0
	C3.6,11.7,2.5,11,1.7,9.7C1.2,8.9,1,8,1,7.1c0.7,0.4,1.5,0.6,2.3,0.6C2.2,6.9,1.4,5.9,1.1,4.6C0.9,3.3,1,2.1,1.7,0.9
	c2.7,3.2,6.2,5,10.4,5.3C12.1,6,12,5.8,12,5.6c-0.1-1.2,0.1-2.3,0.7-3.3c0.8-1.3,2-2,3.4-2.3c1.7-0.3,3.2,0.2,4.4,1.4
	c0.1,0.1,0.2,0.1,0.3,0.1c1-0.2,2-0.6,2.9-1.1c0,0,0,0,0.1,0l0,0c-0.4,1.2-1.1,2.1-2.2,2.8c1-0.1,1.9-0.4,2.8-0.8l0,0
	c-0.2,0.3-0.4,0.5-0.6,0.8c-0.5,0.7-1.2,1.2-1.8,1.7c-0.1,0-0.1,0.1-0.1,0.2c0,0.8,0,1.5-0.1,2.2c-0.2,1.6-0.6,3.1-1.3,4.5
	c-0.7,1.5-1.6,2.8-2.7,4c-1.9,2-4.2,3.3-7,3.9C10.1,19.9,9.2,20,8.2,20c-2.9,0.1-5.6-0.6-8.1-2.2c0,0-0.1,0-0.1-0.1
	c1.8,0.2,3.4,0,5.1-0.7C5.9,16.7,6.7,16.3,7.5,15.7z"/>
</svg>
