<?xml version="1.0" encoding="utf-8"?>
<!-- Generator: Adobe Illustrator 24.1.0, SVG Export Plug-In . SVG Version: 6.00 Build 0)  -->
<svg version="1.1" id="Layer_1" xmlns="http://www.w3.org/2000/svg" xmlns:xlink="http://www.w3.org/1999/xlink" x="0px" y="0px"
	 viewBox="0 0 23.5 20.3" style="enable-background:new 0 0 23.5 20.3;" xml:space="preserve">
<path id="XMLID_8_" d="M23.5,4.7c-0.2,4.4-8.2,15.6-12.9,15.6c-1.4,0-2.5-1.3-3.5-3.8C5.3,9.8,4.5,5.7,2.9,5.7
	c-0.2,0-0.8,0.4-1.8,1.1L0,5.4c2.9-2.6,5.3-5,6.9-5.2C8.7,0.1,9.8,1.3,10.3,4c0.5,3.4,1.3,8.9,2.7,8.9c1.1,0,3.7-4.3,3.8-5.8
	c0.2-2.2-1.6-2.3-3.3-1.6C14.6,1.7,16.8-0.1,20,0C22.5,0.1,23.6,1.6,23.5,4.7L23.5,4.7z"/>
</svg>
